<?xml version="1.0" encoding="UTF-8"?>
<svg version="1.1" viewBox="0 0 2048 1533" width="577" height="432" xmlns="http://www.w3.org/2000/svg">
<path transform="translate(1040,171)" d="m0 0h35v1l-24 3-12 3-47 14-26 10-19 9-22 12-14 9-11 8-16 13-17 16-15 16-13 17-7 11-8 13-9 22-4 17v44l4 14 12 24 11 11 7 8 11 11 12-13 11-12 8-10 10-10 9-7 12-11 12-9 8-7 16-11 17-10 10-7 27-13 19-8 16-6 30-10 22-4 8-2 20-3 25-2h28l11 2 4 2 6-1 31-13 12-5 11-2 18-1h20l22 2 14 3 30 10 16 7 20 10 20 13 17 12 13 11 8 8 8 7 7 7 7 8 12 14 14 19 16 25 7 12 12 26 10 25 5 9 1 7-4-4-12-19-13-25-8-11-11-15-11-14-9-9-7-8-16-16-11-9-15-12-22-14-14-8-8-5-25-10-19-6-27-5h-37l-18 4-15 6-11 6-10 8-14 14-8 11-10 19-2 5 1 5 15 6 16 8 20 11 16 8 18 12 13 9 16 12 16 13 23 23 7 6 7 9 13 16 13 18 8 12 6 10 15 28 8 17 7 20 7 25 3 15 2 4 4 2 13 13 14 23 11 21 5 19 3 19 1 12v43l-3 24-5 24-8 23-10 24-9 20-18 28-8 11-9 12-9 11-11 12-6 7h-2l-2 4-10 10-13 10-15 14-15 11-2-1 11-10 5-5 10-11 5-4 9-12 8-10 11-14 10-16 8-13 7-12 9-19 5-13 9-27 5-18 3-18 3-24v-37l-4-24-3-11-4-11-8-16-6-10-9-10-1-3-4-2-8-6-11-7-19-8-21-6-17-4-1 10-2 12-1 16-2 8-4 27-6 27-3 8-6 18-8 22-4 8-11 24-12 19-10 17-16 22-9 10-11 13-19 19-8 7-12 10-18 13-16 10-9 4-5 9-4 10-15 22-16 16-12 9-17 11-19 10-24 8-21 6-10 2-24 3h-60l-10-2-18-2-12-2-31-9-28-10-29-14-19-10-18-11-11-8-4-4 6 2 23 11 19 8 34 11 15 4 54 9 10 1h32l27-4 27-5 17-5 19-7 14-6 9-6 14-10 13-12 10-13 8-14 6-16 1-5 1-14v-23l-1-26-24 5-2 2-27 3-11 2-21 2-18 1h-38l-14-1-5-1-15-1-23-4-13-2-8-3-16-5-18-6-30-12-19-10-23-14-12-8-11-8-10-9-6-7-15-4h-9l-14-5-15-5-12-6-11-7-14-10-9-9-8-7-13-14-13-19-9-14-8-14-8-19-10-27-7-23-4-24-1-7v-82l3-23 3-18 11-41 2-6h1v12l-4 26-2 22v45l4 35 8 36 8 26 9 19 12 22 8 14 8 12 11 12 10 11 6 5v2l4 2 11 8 10 7 18 7 17 3h28l14-2 8-2 16-6 17-8h2l-7-14-5-8-9-16-10-22-8-16-5-12-8-22-7-27-2-10-4-19-3-26v-69l3-27 5-25 4-16 7-23 4-8 3-2 4 1 1-5-2-7 1-8-4-2-1-17v-21l1-13 5-16 5-15 8-18 10-18 9-13 9-10 7-10 6-7h2l2-4 11-9 10-9 14-11 21-14 17-10 17-9 15-6 19-7 40-11 25-5zm100 210-32 4-40 10-17 6-22 11-12 5-23 13-11 7-7 6-19 14-11 9-25 25-10 11-12 16-8 9-4 5-3 3-4 8-10 14-8 12h-3l-11-11-11-14-10-10-10-13-9-10-7-9-3-1-4 24-2 17-2 7-1 17v34l2 16 2 8 2 16 11 44 4 11 5 15 7 15 6 14 7 10 9 17 9 14 12 16 12 17 10 13 5 7-1 2-25 10-28 11-15 6-8 5-5 3v2l17 9 12 5 16 8 11 5 25 8 21 5 5 2 17 2 25 3h54l24-3 20-3 5-2 11-2 20-5 9-3 13-4 9-4 29-10 1 9 1 4 1 23 2 13 1 30 2 11 4 2 12-14 9-9 8-7 8-9 8-12 11-14 10-15 7-12 7-14 5-12 6-12 9-27 5-18 5-25 2-13 1-3 3-45v-51l-1-12 10 3 10 2 4 2 10 2 21 4 7 3 22 4h4l-1-5-11-25-6-11-7-10-10-15-10-14-11-11-7-8-11-12-15-14-11-9-9-8-9-5-9-6-25-15-16-8-17-8-19-7-23-8-15-6-20-4-5-3-2 1 7-11 9-16 10-15 8-13 8-14 4-8v-2z" fill="#57D3D2"/>
<path transform="translate(1280,651)" d="m0 0 20 4 4 2 10 2 21 4 7 3 22 4-2 2 15 3v2l14 1 3 1v2l9 2 9 4v2l9 3 6 4 3 3 7 3 4 5v2l4 2 13 13 14 23 11 21 5 19 3 19 1 12v43l-3 24-5 24-8 23-10 24-9 20-18 28-8 11-9 12-9 11-11 12-6 7h-2l-2 4-10 10-13 10-15 14-15 11-2-1 11-10 5-5 10-11 5-4 9-12 8-10 11-14 10-16 8-13 7-12 9-19 5-13 9-27 5-18 3-18 3-24v-37l-4-24-3-11-4-11-8-16-6-10-9-10-1-3-4-2-8-6-11-7-19-8-21-6-17-4-1 10-2 12-1 16-2 8-4 27-6 27-3 8-6 18-8 22-4 8-11 24-12 19-10 17-16 22-9 10-11 13-19 19-8 7-12 10-18 13-16 10-9 4-5 9-4 10-15 22-16 16-12 9-17 11-19 10-24 8-21 6-10 2-24 3h-60l-10-2-18-2-12-2-31-9-28-10-29-14-19-10-18-11-11-8-4-4 6 2 23 11 19 8 34 11 15 4 54 9 10 1h32l27-4 27-5 17-5 19-7 14-6 9-6 14-10 13-12 10-13 8-14 6-16 1-5 1-14v-23l-1-26-24 5-2 2-27 3-11 2h-13l-1-2 1-6h-5-3v-2l-4-1v-5l5-5 3-5 5-6 1-4 6-3v-2l3-3h3l1-3 6-3 5-2 5-4h3l1-3 4-2 1-2-4-1 11-2 20-5 9-3 13-4 9-4 26-9h3l3 13 1 23 2 13 1 30 2 11 3 1 9-11 12-12 8-7 9-11 9-13 11-14 12-20 9-17 5-12 6-12 9-27 5-18 5-25 2-13 1-3 3-45z" fill="#57D3D2"/>
<path transform="translate(1269,304)" d="m0 0h20l22 2 14 3 30 10 16 7 20 10 20 13 17 12 13 11 8 8 8 7 7 7 7 8 12 14 14 19 16 25 7 12 12 26 10 25 5 9 1 7-4-4-12-19-13-25-8-11-11-15-11-14-9-9-7-8-16-16-11-9-15-12-22-14-14-8-8-5-25-10-19-6-27-5h-37l-18 4-15 6-11 6-10 8-14 14-8 11-10 19-2 5 1 5 15 6 16 8 20 11 16 8 18 12 13 9 16 12 16 13 23 23 7 6 7 9 13 16 13 18 8 12 6 10 15 28 8 17 7 20 7 25 1 5v9l-1-2-6-2-7-6-9-4-2-1v-2l-5-1-10-4-3-1v-2l-17-2v-2l-12-1-4-2v-1h7l-11-26-8-15-7-10-10-15-10-14-11-11-7-8-11-12-14-13-11-9-9-8-9-5-9-6-25-15-16-8-17-8-19-7-23-8-15-6-20-4-5-3h-2l2-4 12-21 7-11 10-15 10-18 5-10-37 5-40 10-17 6-22 11-12 5-23 13-11 7-7 6-19 14-11 9-20 20h-2l-2 4-11 12h-4l1-4 2-5 5-5 2-3h2l1-12v-8l3-7 2-11 1-10 2-6 3-7 1-11h-2l-1 2-6 1-1 2-2-1-1 3-3-1 3-5 4-5 8-6 11-9 12-8 17-10 10-7 27-13 19-8 16-6 30-10 22-4 8-2 20-3 25-2h28l11 2 4 2 6-1 31-13 12-5 11-2z" fill="#4ABCBA"/>
<path transform="translate(1150,883)" d="m0 0h3l3 13 1 23 2 13 1 30 2 11 2 7v21l-3 24-4 13-3 3-2 7-5 9-4 10-15 22-16 16-12 9-17 11-19 10-24 8-21 6-10 2-24 3h-60l-10-2-18-2-12-2-31-9-28-10-29-14-19-10-18-11-11-8-4-4 6 2 23 11 19 8 34 11 15 4 54 9 10 1h32l27-4 27-5 17-5 19-7 14-6 9-6 14-10 13-12 10-13 8-14 6-16 1-5 1-14v-23l-1-26-24 5-2 2-27 3-11 2h-13l-1-2 1-6h-5-3v-2l-4-1v-5l5-5 3-5 5-6 1-4 6-3v-2l3-3h3l1-3 6-3 5-2 5-4h3l1-3 4-2 1-2-4-1 11-2 20-5 9-3 13-4 9-4z" fill="#57D3D2"/>
<path transform="translate(1148,322)" d="m0 0h28l11 2 4 2h7l-2 4-7 3-12 9-6 7-3 3-1 3-6 5-6 8-4 4-3 6-2 2-6 2-32 4-40 10-17 6-22 11-12 5-23 13-11 7-7 6-19 14-11 9-20 20h-2l-2 4-11 12h-4l1-4 2-5 5-5 2-3h2l1-12v-8l3-7 2-11 1-10 2-6 3-7 1-11h-2l-1 2-6 1-1 2-2-1-1 3-3-1 3-5 4-5 8-6 11-9 12-8 17-10 10-7 27-13 19-8 16-6 30-10 22-4 8-2 20-3z" fill="#287B78"/>
<path transform="translate(807,872)" d="m0 0h5l15 8 12 5 16 8 11 5 25 8 21 5 5 2 17 2 25 3h54l24-3 20-3 2-1h7l-1 3-4 2-1 2-5 3-6 4-4 1-4 2-1 2h-3l-2 5-7 4-1 5-6 6-3 6-4 2v5l4 1 2 2 3-1 3 1v9l-26 2h-38l-14-1-5-1-15-1-23-4-13-2-8-3-16-5-18-6-30-12-19-10-23-14-12-8-11-8-10-9-7-8v-1l36-2 10-3z" fill="#287B78"/>
<path transform="translate(1279,739)" d="m0 0 3 2v11l2 9-1 10 3 3-1 6 1 3h2l2 7 3-2v2h2l1 2 5-1v5l2 1 2 4 5 1 4-4 8-4 5 5 1 6-4 19-3 8-6 18-8 22-4 8-11 24-12 19-10 17-16 22-9 10-11 13-19 19-8 7-12 10-18 13-16 10-5 2h-4l2-6 3-5 3-10 3-24v-26l5-5 14-15 15-14 10-14 18-24 12-20 7-14 5-12 6-12 9-27 5-18 5-25 2-13 1-3z" fill="#287B78"/>
<path transform="translate(759,448)" d="m0 0 5 1 4-1 3 8 13 26 6 7 4 8v2l3 1v13l-2 12-2 17-2 7-1 17v34l2 16 2 8 2 16 11 44 4 11 5 15 7 15 6 14 7 10 9 17 2 7-3-2-4-7-4-6-2-1-3-7-3-3v-2h-2v-3l-6-2-9-1-8-4-9-1-3-2v-2h-8l-5-2-4-3v-2h-6l2 13-3 1-1-5h-2l-3-6v-3l-3-1-8-22-7-27-2-10-4-19-3-26v-69l3-27 5-25 4-16 7-23 4-8z" fill="#287B78"/>
<path transform="translate(1255,461)" d="m0 0 7 1 15 10 13 9 16 12 16 13 23 23 7 6 7 9 13 16 13 18 8 12 6 10 15 28 8 17 7 20 7 25 1 5v9l-1-2-6-2-7-6-9-4-2-1v-2l-5-1-10-4-3-1v-2l-17-2v-2l-12-1-4-2v-1h7l-11-26-8-15-7-10-10-15-10-14-11-11-7-8-11-12-14-13-11-9-9-8-9-5-1-4-3-1 3-2 5 1 3 3 6 1 7 2 2-4 1-13 3-13-2-10-4-8-6-5-3-7-2-1v-2z" fill="#399996"/>
<path transform="translate(1148,322)" d="m0 0h28l11 2 4 2h7l-2 4-7 3-12 9-6 7-3 3-1 3-6 5-6 8-4 4-3 6-2 2-6 2-32 4-40 10-17 6-14 7-6 1 2-6 7-9h2l1-6 5-8 3-9v-6l-1-5v-3l-3-2v-2h-3v-2h-3l-1-7 8-4 25-8 22-4 8-2 20-3z" fill="#115652"/>
<path transform="translate(1178,346)" d="m0 0h8l3 17v9l1 6-2 12-2 4v8l-2 5v6l3 6-1 10 5 1 3 11-1 5 3 3-4 12v7l-2 6-1 7-11-1h-4l2 4-9-2-26-9-15-6-20-4-5-3h-2l2-4 12-21 7-11 10-15 10-18 5-10-3-1 5-2 2-3 3-1 3-4h2l1-3h2l2-4 2-3h2l1-3 10-10z" fill="#57D3D2"/>
<path transform="translate(995,609)" d="m0 0h66l6 2 4 3 1 3v23l-1 11-2 5v55l3 12v13l-5 5-2-1v-14l-3-3h-6l-2 1-1 21h-9l-1-2 2-5v-14h-4l3 4v9l-1 1h-8l-1-1v-11l-1-1 1 19h-36l-9-3-3-4-1-4v-11l3-8 1-2v-58l-3-4-1-5v-27l4-6zm2 10-3 2v21l2 4 15 6 6 2h22l14-4 10-5 1-2 1-22-2-2zm3 34-3 3 1 4 6 1 3-2-1-5zm55 0-5 2-1 4 1 1h10l-1-7zm-11 6-9 6 4 1 7-6zm-32 1 5 5 4 2-2-4-5-3zm42 6-1 1v5l4-2v-4zm-40 2 1 2 1-2zm15 0m13 0m-11 1-1 4-4 1 1 12v16l5 5h4l-2-1 1-29h4l3 3 3 7h2l-4 14-3 4 5-2 3-7 1-11v-10h-5l-12-6zm12 0m-16 0-9 3-5 4-1 2h-3l-2-3-3 2v2l5 5v10l-3 6-2 3 2 1 5-8 2-12 4-6 10-6 2-3zm-33 9 1 5h2l-1-5zm69 0-9 3-4 4-1 5 3 8-1 4-4 4-6 7-5 3v2l6-2 8-8 5-6 3-3-1-4-2-6 4-7 2-1 1 3h2v-6zm-61 6-2 6 2 7h2l1-3v-7zm-6 9-2 5h4l1-4zm66 0-2 2v5h4v-7zm-56 11 2 4 6 7 9 4h10l2-2-7-1-9-1-6-4-6-7zm-7 5-2 6 2 3 5-1 1-3-2-5zm54 0v8h6l1-1v-5l-2-2zm-56 16-1 2v7h5l1-1v-7zm19 0-1 7 4 1 2-3v-5z" fill="#4BAEAC"/>
<path transform="translate(1316,308)" d="m0 0 9 1 30 10 16 7 20 10 20 13 17 12 13 11 8 8 8 7 7 7 7 8 12 14 14 19 16 25 7 12 12 26 10 25 5 9 1 7-4-4-12-19-13-25-8-11-11-15-11-14-9-9-7-8-16-16-11-9-15-12-22-14-14-8-8-5-25-10-19-6-27-5-5-2 2-1 2-11 1-11-3-10-1-3 1-2z" fill="#135854"/>
<path transform="translate(807,872)" d="m0 0h5l15 8 12 5 16 8 11 5 25 8 12 3 1 4-4 1v2l-9 5-6 7-3 3-7 11-1 10 3 5-1 4h-6l-14-5-12-4-11-5-13-5-19-10-23-14-12-8-11-8-10-9-7-8v-1l36-2 10-3z" fill="#1B6663"/>
<path transform="translate(929,413)" d="m0 0 4 1-1 11-4 8-2 9v8l-3 12-2 4v13l-2 7-5 5-2 3h-2l-1 5-2 4 4 1-13 16-6 7-5 6h-2l-3 9-12 16-7 11-3 2-13-13-11-14-5-5v-3h5l5 6 1-2h2l-1-7h2l-2-8 3-4 1-11 1-3 1-21-3-13-2-1v-2l-5-2-2-5-1-3h3l17 17 12-13 11-12 8-10 10-10 9-7 12-11 2 1-3 5h2l1-2 6-2 3-2z" fill="#49ACAA"/>
<path transform="translate(1229,899)" d="m0 0h2l1 5-2 7 3 7 6 5 10 6 2 3h10l6-3 4 1v8l-8 12-9 12-9 10-11 13-19 19-8 7-12 10-18 13-16 10-5 2h-4l2-6 3-5 3-10 3-24v-26l5-5 14-15 15-14 10-14 18-24z" fill="#115652"/>
<path transform="translate(770,722)" d="m0 0 4 1v2l4 2 7 2 6 1 3 3 9 1 8 4 11 1 4 3v3h2l1 4 4 2 1 6 3 1 7 10 2 3 1-2 7 11 12 16 12 17 10 13 5 7-2 3-25 10-18 7-8 1 2-5 8-2 4-6h3v-3l-10-2-1-4h-6l-1-3-5-2-11-6-4-3-4-2-5-2-6 1-1 2-10 1 1-4 6-4h2l-7-14-5-8-9-16-10-22-8-16-4-9v-2h2l4 8 2 1 1 4 1-1-1-9-2-1h2v-2z" fill="#49ACAA"/>
<path transform="translate(759,448)" d="m0 0 5 1 4-1 3 8 13 26 6 7 4 8v2l3 1v13l-2 12-2 17-2 7-1 17-1 36-2 1v-2l-6-1h-3l-10-5-9-1-6-2-10-2-5-6v-2l-4-1v-32l3-27 5-25 4-16 7-23 4-8z" fill="#115652"/>
<path transform="translate(1280,651)" d="m0 0 20 4 3 2 1 7 5 1v8l3 1 2 6 3 5 4 7 8 7 3 5 3 3v2l4 2 5 6 13 4 5 2 9 2 3 3v2l3 1-1 1-9-1-19-5-8-2-1 10-2 12-1 16-2 8-4 27-1 4h-2l-3-5-3-1-9 6-2 2-5-1-4-6v-5l-5 2-1-3-3-1-2 2-2-2v-6h-2l-2-4 1-5-3-2 1-13-2-10v-8l-2-2v-13l1-12z" fill="#49ACAA"/>
<path transform="translate(1150,883)" d="m0 0h3l2 9-1 9v14l-1 10h2l-2 6-4-2-2-6-4-2-3-3h-2v5l-3 4-6 12-4 7-5 5-8 16-4 2h-3v-2h-2v-5l-24 5-2 2-27 3-11 2h-13l-1-2 1-6h-5-3v-2l-4-1v-5l5-5 3-5 5-6 1-4 6-3v-2l3-3h3l1-3 6-3 5-2 5-4h3l1-3 4-2 1-2-4-1 11-2 20-5 9-3 13-4 9-4z" fill="#49ACAA"/>
<path transform="translate(1334,521)" d="m0 0 4 1 7 7 7 6 7 9 13 16 13 18 8 12 6 10 15 28 8 17 7 20 7 25 1 5v9l-1-2-6-2-7-6-9-4-2-1v-2l-5-1-10-4-3-1v-2l-17-2v-2l-12-1-4-2v-1h7l-11-26-8-15-3-4 1-5 3 1 1 3 2 1v-3l3-3-1-2 1-10 2-5v-11l1-3v-14l1-1-1-15-5-12-3-3v-2h-2l-3-3-3-5-6-9z" fill="#287B78"/>
<path transform="translate(1269,304)" d="m0 0h20l22 2 6 1-1 2h-3l1 5 3 10-1 14-2 6-1 4-34 1-18 4-15 6-11 6-10 8-14 14-8 10h-2v-7l12-16 5-11 3-13 2-9-5-9-1-1v-6l-10 1-3-2h3v-3l21-9 12-5 11-2z" fill="#49ACAA"/>
<path transform="translate(1457,847)" d="m0 0 1 4h2l-1 6 3 1v12l7 13 7 4 4-2 5-1 3-2-1 14-5 19-9 25-11 25-7 14-7 11-9 14-8 11-9 12-9 11-11 12-6 7h-2l-2 4-10 10-13 10-15 14-15 11-2-1 11-10 5-5 10-11 5-4 9-12 8-10 11-14 10-16 8-13 7-12 9-19 5-13 9-27 5-18 3-18 3-24 1-31z" fill="#49ACAB"/>
<path transform="translate(998,598)" d="m0 0h76l5 2 4 8 1 129-2 13-4 8-3 1h-10l-3-8v-4l9-4 3-5v-23l-1-2v-60l1-1 1-17v-15l-2-8-4-4-5-1h-69l-8 2-4 5-2 10v13l1 14 2 3 1 13v40l-2 9-1 2v17l3 6 4 4 8 2 39 1v-4-2l4 1 1 5h17l4 19 1 2 8 1 34 1-1 2h-40l-4-2-2-12h-17v22l-3-2-1-19-51-1-5-1-6-12-1-4-1-91v-34l2-13 4-5zm43 153 1 2z" fill="#4AAEAC"/>
<path transform="translate(1040,171)" d="m0 0h35v1l-24 3-12 3-47 14-26 10-19 9-22 12-14 9-11 8-16 13-17 16-15 16-13 17-5 8h-2v-7l6-10 3-4v-3l1-3 1-13 5-12v-3l-3-1-1 3-3 1-1 2h-3l-1 3-6 4-2-1 3-3 5-4 4-4 2-3 2-1v-4l14-11 21-14 17-10 17-9 15-6 19-7 40-11 25-5z" fill="#49ADAB"/>
<path transform="translate(578,502)" d="m0 0h1v12l-4 26-2 22v45l4 35 8 36 8 26 9 19 12 22 8 14 8 12 6 7-1 3-5-3-2-5h-2l-5-7-5-5-3-4-8-4v-2l-5 3-9-3 1 4-1 2 2 11h-3l-2-6-2-1v-2h-2l-5-11-9-26-6-19-4-24-1-7v-82l3-23 3-18 11-41z" fill="#49ADAB"/>
<path transform="translate(1138,784)" d="m0 0 2 1 2 19 2 11-1 7-21 11-10 5-26 10-15 5-23 6-12 3-10 2-7 2-22 2h-24l-20-1-6-2v-2l-11-1-1-2 5-1h20l20-1 21-4 19-5 23-8 17-8 33-18 10-6 18-12 11-8z" fill="#FDFDFD"/>
<path transform="translate(1042,464)" d="m0 0 2 1-5 5-10 8-10 7-7 8-12 13-7 9-6 7-7 11-8 13-9 16-10 21-6 12-11 29-6 18-4-1-11-12-9-9-1-5 6-15 12-21 11-17 12-17 10-13 7-8 18-18 5-6 17-13 10-7 13-8z" fill="#FDFDFD"/>
<path transform="translate(847,625)" d="m0 0 3 1 6 20 15 30 12 19 8 11 9 10 7 8 8 8 7 8 12 11 11 9 12 11 9 6 12 9 3 2v3l-28 14-4 1-8-7-7-8-14-14-9-11-10-13-14-19-10-18-8-16-9-19-7-19-3-13v-6l-2-3-1-5z" fill="#FDFDFD"/>
<path transform="translate(1059,911)" d="m0 0h7l-1 3-4 2-1 2-5 3-6 4-4 1-4 2-1 2h-3l-2 5-7 4-1 5-6 6-3 6-4 2v5l4 1 2 2 3-1 3 1v9l-26 2h-38l3-2-8-2-3-3-7-2 1-5 4-6 4-2v-2l5-2 4-12 2-5 6-5 3-5h2v-3l-10-1v-1l45-1 24-3 20-3z" fill="#399996"/>
<path transform="translate(1070,515)" d="m0 0 21 2 20 4 34 9 22 8 14 7 12 5 23 13 12 8 11 10 14 11 3 3 1 4-6-1-7-6-15-9-19-9-14-6-16-5-18-5-21-4-17-3-22-2-49-1 2-5 12-24z" fill="#FDFDFD"/>
<path transform="translate(1183,635)" d="m0 0h8l26 6 3 5 2 7 2 17 2 30 1 6v21l-3 36-2 15-3 9v6l-4 1-1 9-4 13-9 21-5 10-3-1 3-6 4-17 2-5 1-13 2-5 1-24v-36l-1-9-2-5-2-16-5-28-3-10-4-18-5-11z" fill="#FDFDFD"/>
<path transform="translate(1279,739)" d="m0 0 3 2v11l2 9-1 10 3 3-1 6 1 3h2l2 7 3-2v2h2l1 2 5-1v5l2 1 2 4 5 1 4-4 8-4 5 5 1 6-4 19-3 8-6 18-2 2v-2l-9 6h-2v2l-7 4-11-2-1-2-6-2-6-5-6-4-1-6v-8l1-8-2-1 4-17 4-16 3-16 2-13 1-3z" fill="#399996"/>
<path transform="translate(964,381)" d="m0 0v3l-2 2h3v-2l5-1 3-1 5 3 3 9v7l-4 16-2 6-2 8-2 6h-2l-2 7-3 2-1 3h-2l1 5-10 8-13 12-13 13h-2l-2 4-11 12h-4l1-4 2-5 5-5 2-3h2l1-12v-8l3-7 2-11 1-10 2-6 3-7 1-11h-2l-1 2-6 1-1 2-2-1-1 3-3-1 3-5 4-5 8-6 11-9 12-8z" fill="#399996"/>
<path transform="translate(757,671)" d="m0 0 18 1 1 3h7l9 6 2 1v2l6 1 1 5 9 1 5 17 8 17 6 14 7 10 9 17 2 7-3-2-4-7-4-6-2-1-3-7-3-3v-2h-2v-3l-6-2-9-1-8-4-9-1-3-2v-2h-8l-5-2-4-3v-2h-6l2 13-3 1-1-5h-2l-3-6v-3l-3-1-8-22-6-23 1-4 2 1v-2l10 1z" fill="#399996"/>
<path transform="translate(1089,330)" d="m0 0h6l6 7 6 5 2 6v13l-3 8-4 4h-2l-1 5-4 5-3 7-27 7-16 6-12 6-6 1 2-6 7-9h2l1-6 5-8 3-9v-6l-1-5v-3l-3-2v-2h-3v-2h-3l-1-7 8-4 25-8z" fill="#1B6663"/>
<path transform="translate(1229,899)" d="m0 0h2l1 5-2 7 3 7 6 5 10 6 2 3h10l6-3 4 1v8l-8 12-9 12-9 10-7 9-4-1-6 1-9 1-8-2-2-4-5-2-5-5-3-5-2-7 1-3-2-1h2v-4l-3-3 9-10 8-12 11-14 7-10z" fill="#1B6663"/>
<path transform="translate(738,517)" d="m0 0 6 4 3 4v2l8-1 2 2 9 2 8 5 5 2 2 4 2 1v2h3v2l3 1 1 2v17l-1 36-2 1v-2l-6-1h-3l-10-5-9-1-6-2-10-2-5-6v-2l-4-1v-32l3-27z" fill="#1B6663"/>
<path transform="translate(807,872)" d="m0 0h5l15 8 12 5 10 5v3l-5 1-5 3-6 2-8 5-3 1-1 5-4 5v7l3 11 2 5-1 2-7-1-20-11-16-10-12-8-11-8-10-9-7-8v-1l36-2 10-3z" fill="#115652"/>
<path transform="translate(1199,431)" d="m0 0 6 1 16 8 22 12 16 8v4l4 2 2 5 5 5 3 5 4 11-1 9-2 10-2 13-2 2-9-3h-5l-2-4h-2l-1 2v-2l-4 1 2 1-1 2-22-13-14-8-30-15v-2h3v2h8l4 1v2l8 1v2l3-1 5 1 6 3h5v-6l3-9 1-14v-7l2-6-4-1v-2l-4-2-2-4-6-2v-3l-5-2-10-5z" fill="#49ACAA"/>
<path transform="translate(796,783)" d="m0 0 13 4 8 1 2 1 13 1 21-1 12 12 2 4 4 4 7 8 6 4 8 10 1 3-5 3-37 15-11 2 2-5 8-2 4-6h3v-3l-10-2-1-4h-6l-1-3-5-2-11-6-4-3-4-2-5-2-6 1-1 2-10 1 1-4 6-4h2l-7-14-3-4v-2l5-1z" fill="#4ABDBB"/>
<path transform="translate(745,1082)" d="m0 0 6 2 23 11 19 8 34 11 15 4 54 9 10 1h32l12-2h5v6l-5 5-9 6-10 7-4 2h-12l-18-2-12-2-31-9-28-10-29-14-19-10-18-11-11-8z" fill="#49ADAB"/>
<path transform="translate(1247,1204)" d="m0 0h31l17 4 6 5 3 9v9l-4 9-6 6 2 9 8 16 1 5h-16l-5-5-9-17-4-2h-5l-1 24h-17l-1-1zm20 13-2 2v18l1 1h15l4-5 1-6-3-7-6-3z" fill="#9CF4F3"/>
<path transform="translate(935,1204)" d="m0 0h18v27h26v-27h18v72h-17l-1-1v-30h-26v31h-17l-1-4z" fill="#9CF4F3"/>
<path transform="translate(884,454)" d="m0 0h3l1 4-3 12-1 5-1 18-3 8-2 16-2 3-3 11v8 3l-3 7-3 4h-2l-1 4h-2l-1 4-3 3h-1l-2 2-8-8-11-14-5-5v-3h5l5 6 1-2h2l-1-7h2l-2-8 3-4 1-11 1-3 1-21-3-13-2-1v-2l-5-2-2-5-1-3h3l17 17 7-8 3 1v3l4-4h3l1-3 5-4 2-5 3-1z" fill="#4ABDBB"/>
<path transform="translate(1311,500)" d="m0 0 5 1 10 9 10 10 2 5 4 6 5 7 2 4h2l5 7 4 10 1 15-1 2v13l-1 8v7l-2 4-1 11v3l-3 1v3l-3-1-1-3-2 1-2 2-7-11-8-12-9-12-9-9 1-3h10l3 1-1-11 2-7-1-5 3-15-3-16v-4l-3-1-3-9-6-5z" fill="#2F8A87"/>
<path transform="translate(1316,308)" d="m0 0 9 1 30 10 16 7 20 10-1 5 4 2 5 3-1 2h-3v2h-2v-2l-2 1-1 12-3 4 2 5-10-3-14-6-22-7-27-5-5-2 2-1 2-11 1-11-3-10-1-3 1-2z" fill="#287C79"/>
<path transform="translate(1288,653)" d="m0 0 10 1 5 3 1 7 5 1v8l3 1 2 6 3 5 4 7 8 7 3 5 3 3v2l4 2 5 6 13 4 5 2 9 2 3 3v2l3 1-1 1-9-1-19-5-8-2-1 4-1-2-3 1-1 3-5 1v2h-7l-7-3-12-6 1-3-4 1-1-3h-2l-3-6-4-9-3-7-4-20v-15l1-3h3z" fill="#4ABDBB"/>
<path transform="translate(1144,891)" d="m0 0 5 1 2 5 2-1 2-4-1 9v14l-1 10h2l-2 6-4-2-2-6-4-2-3-3h-2v5l-3 4-6 12-4 7-5 5-8 16-4 2h-3v-2h-2v-5l-13 2 1-2 3-2-1-3-7-2v-6l-2-3v-6l5-7 1-3h2v-2h2l2-4 5-4 7-9 4-2 3-3 4-1 5-5 3-2h3v-2l11-3h2z" fill="#4ABDBB"/>
<path transform="translate(1167,1204)" d="m0 0h51l1 3-1 10-31 1-1 13h24l2 2-1 12h-25l1 16 30 1 1 1v13h-50l-1-1z" fill="#9CF4F3"/>
<path transform="translate(1574,1204)" d="m0 0h50v13l-21 1-10-1v14h26l1 1v12l-1 1h-26v17h29l2 2v11l-1 1h-48l-1-1z" fill="#9CF4F3"/>
<path transform="translate(475,1203)" d="m0 0 6 1 10 27 9 26 7 15v4h-18l-4-9v-2h-20l-6 1-2 9-1 1h-18l1-5 11-28 9-29 4-8 2-2zm-5 25-3 9-2 8v4l10 1 5-1-1-5-6-14z" fill="#9CF4F3"/>
<path transform="translate(1103,1203)" d="m0 0 13 1 10 4 5 5 3 4v6l-2 2-14 1-3-2-2-5-2-1h-8l-5 3-1 3 4 4 17 8 9 4 5 6 2 4v13l-4 8-4 3-6 2h-24l-10-5-5-5-2-3-1-8 1-2h16l3 8 5 1h12l-1-10-1-2-10-3-16-8-5-4-3-7v-9l3-6 6-5 10-4z" fill="#9CF4F3"/>
<path transform="translate(1677,1203)" d="m0 0h9l13 4 8 6 4 8-1 3-12 2-5-1-6-7h-7l-7 4-1 4 8 4 12 5 10 6 7 8 2 4-1 9-6 9-9 5h-24l-9-4-6-7-3-6v-5l1-1h15l4 8 3 1h9l6-2-1-6-2-4-6-2-16-6-8-6-2-5v-15l5-6 12-6z" fill="#9CF4F3"/>
<path transform="translate(1332,1204)" d="m0 0h19l2 2 9 35 2 8 3-1 6-23 4-15 3-6h19l-1 8-17 50-6 13-1 1h-16l-3-3-6-17-6-16-11-33z" fill="#9CF4F3"/>
<path transform="translate(536,1204)" d="m0 0h30l14 3 6 4 6 9 1 3v12l-5 9-6 5-5 2-23 1v23l-1 1h-16l-1-1zm18 13v20l1 1h18l2-2 1-9-3-7-7-3z" fill="#9CF4F3"/>
<path transform="translate(765,1204)" d="m0 0h48l1 2-1 11-21 1h-10l-1 13h28l1 1v12l-1 1h-28v17h30l2 2v11l-1 1h-47l-1-71z" fill="#9CF4F3"/>
<path transform="translate(1269,304)" d="m0 0h20l22 2 6 1-1 2h-3l1 5 3 10-1 14-2 6-1 4-34 1-18 4-11 4-4-1 1-4 8-5 1-2h2l1-3 5-5 2-3v-4l-2-1-1-7v-4h-2v-6h-3v-2h3v-5z" fill="#399996"/>
<path transform="translate(353,1204)" d="m0 0h58l1 3-4 9-7 11-13 19-8 12-2 4h32l1 1-1 13h-56l-1-4 4-10 13-19 10-14 7-12h-34l-1-11z" fill="#9CF4F3"/>
<path transform="translate(871,1203)" d="m0 0 11 1 9 4 8 7 4 7 1 7-1 1h-17l-4-9-5-3h-7l-5 3-2 7-1 16 2 14 2 3 4 1h8l5-3 2-6h18v6l-5 9-6 5-8 3h-21l-7-3-7-6-5-11-2-9v-14l3-12 5-8 10-7 5-2z" fill="#9CF4F3"/>
<path transform="translate(1510,1203)" d="m0 0h7l10 3 6 4 6 8 3 7-1 5h-16l-5-10-3-2h-9l-5 4-2 6-1 7v11l2 11 5 5h11l4-1 2-6 1-2h11l6 1-1 5-5 9-7 6-6 2h-22l-8-4-6-7-4-11-1-5v-18l4-13 7-8 8-5z" fill="#9CF4F3"/>
<path transform="translate(1040,171)" d="m0 0h35v1l-24 3-12 3-47 14-26 10-19 9-22 12-14 9-3-1 2-4 6-4v-6l1-2h-10l-5-2-5 3-4 1v-3l18-10 17-7 19-7 40-11 25-5z" fill="#2C8380"/>
<path transform="translate(578,502)" d="m0 0h1v12l-4 26-2 22v45l4 35 8 36 1 7-2 2-4-5-3-2-1-9-8-2-2 8-2 2v3h-2l-3-10v-82l3-23 3-18 11-41z" fill="#399A97"/>
<path transform="translate(1439,956)" d="m0 0 3 1 1 6-2 5 1 4 2-3 3 1v2l3-1 3-3 3-5 2-1 2 2v6l-9 16-6 9-9 13-8 11-6 8-9 11-11 12-6 7h-2l-2 4-10 10-13 10-15 14-15 11-2-1 11-10 5-5 10-11 5-4 9-12 8-10 11-14 10-16 8-13 7-12 9-19 5-13 3-9z" fill="#3A9A97"/>
<path transform="translate(736,630)" d="m0 0h1v6l13-1 7 2 10 3 11 2 6 4 6 7 3 7 4 4 2 1 2-4 7 26 1 4-2 1-6-2-1-5-6-1v-2l-5-2-7-4-6-1-1-2-17-1-4 2-7-2v2l-4-1-2-10-4-19z" fill="#2F8A87"/>
<path transform="translate(944,917)" d="m0 0 15 1 20 2-1 4-3 3-6 7-2 2-3 10-3 6-5 1v2l-5 4-3 5-1 4 7 1 3 2v2l22 2v1h-31l-5-1-15-1-19-3v-1l9-1 7 1v-3l-5-3-3-5 1-7 5-5 2-9 5-4h2l1-4 7-4h2v-2l5-2-1-3z" fill="#2F8A87"/>
<path transform="translate(1264,823)" d="m0 0 2 3-1 11v10l4 2 6 4 3 3 6 2v2h8l3 1 5-3h2v-2l5-3 2-2 4-1-1 8-5 14-4 8-2 3-1-2-7 7h-4v2l-7 4h-6l-9-6-5-5-5-4v-2l-4-1-1-5-1-3 1-2-2-1 2-2-1-4h-2l14-35z" fill="#2F8A87"/>
<path transform="translate(993,364)" d="m0 0h2l1 3 7 3 5 5 2 3-1 11-3 12-3 5-2 9-1 3h-2l-1 5-2 2-3 1v2h-2l-2 4h-2v2l2 1-24 18h-4l1-4h2l1-4 3-1 1-5 1-2h2l1-6 2-8 2-6 4-16v-7l-3-9-5-2-5 2-2-1v2l-4 1 1-3 7-6 14-9z" fill="#2F8A87"/>
<path transform="translate(673,1204)" d="m0 0h61l-1 13h-21v58l-1 1h-18l-1-32v-27h-18l-1-1z" fill="#9CF4F3"/>
<path transform="translate(1390,337)" d="m0 0 6 2 15 10 17 12 10 8-1 4 3 1v2h2l6 8v2h2l-1 2-1 3v6l-6 5-3 1-17-12-30-18-5-5v-4l2-5 1-10 3-1v2h2v-2l3-2-8-5z" fill="#1B6764"/>
<path transform="translate(1390,590)" d="m0 0 4 1 13 24 12 23 8 20 8 28 1 4v11l-7-6-4-2v-2l-5-2-6-3-2-2-2-3-4-8-5-9-1-7 3-16-1-14v-5l-5-11-3-9-3-5v-4l-2-2z" fill="#1C6764"/>
<path transform="translate(1018,214)" d="m0 0 2 2-28 12-17 9-12 8-16 11-11 9-13 11-7 7-9 11-12 15-11 17-6 10h-5l-3-5 5-14 9-16 18-20 12-12 15-11 27-18 16-8 29-12z" fill="#125854"/>
<path transform="translate(1340,398)" d="m0 0h9l14 2 15 4 22 11 19 12 9 7 20 18 3 2v2l4 2 11 12 11 14 9 10 5 7-1 2-12-13-25-25-14-11-17-13-16-10-15-8-22-8-27-7-5-4 1-5z" fill="#125854"/>
<path transform="translate(1039,245)" d="m0 0 3 1-24 12-17 10-15 11-19 19-13 19-7 12-6 14-7 6-7 1-2-2 1-9 8-18 8-13 8-11 8-7 12-10 15-11 19-10 15-7z" fill="#125854"/>
<path transform="translate(954,1020)" d="m0 0h20l-2 5-8 9-14 7-18 6-35 6-23 1-22-2-18-5-16-4-5-2v-1l10 1 8 2 24 2h24l22-3 20-5 16-7 10-7z" fill="#135854"/>
<path transform="translate(1349,452)" d="m0 0h12l14 3 13 5 18 10 11 8 11 9 14 12 8 8 4 6 1 3h2l12 16-1 2-11-12-17-16-17-13-18-10-18-8-19-6-23-5-8-5-2-4 6-2z" fill="#135854"/>
<path transform="translate(1431,1203)" d="m0 0 18 1 1 6v32l-1 34h-18l-1-1v-71z" fill="#99F2F1"/>
<path transform="translate(1411,868)" d="m0 0 5 1 2 6 1 7v18l-4 24-7 25-8 21-5 11-8 16-19 29-7 11-2 1 2-5 12-21 10-19 5-11 8-24 5-23 3-21 2-16 1-20 3-9z" fill="#135955"/>
<path transform="translate(1457,847)" d="m0 0 1 4h2l-1 6 3 1v12l7 13 7 4 4-2 5-1 3-2-1 14-4 16-3-1-2 3h-2l-1 7-1 2h-3v2l-4 1-4-5v-2h-6l-1-5v-7h-4l2-20 1-8 1-31z" fill="#4BBDBB"/>
<path transform="translate(1009,1114)" d="m0 0 4 1-2 1v2l-7 3-4 1-8 8-1 3h-3v2l-3 3-3 5-3 3-6 3-11 2-3 2-6 1h-28l-6-1v-2h8l8-5 14-9 5-5 2-7 27-4 17-4z" fill="#4BBEBC"/>
<path transform="translate(1357,874)" d="m0 0 2 2 7 22 3 16-4 31-4 16-6 15-7 14-8 13-10 14-2 1 2-5 4-7 8-19 6-17 2-3 3-20 1-12v-48z" fill="#145955"/>
<path transform="translate(1029,669)" d="m0 0h2l-1 5h-4l2 12v16l5 5 1-1v-29l2-2 6 3 3 8 2 1-1 6-3 9v1l3-3 2-9 2-1 3 8-1 4-3 1-2 5-9 8h-2l-1 2-7-1-9-1-6-4-7-8 4-8 2-12 4-6 11-7z" fill="#4BAEAC"/>
<path transform="translate(865,231)" d="m0 0 2 3-2 2h-3v2l11-5 3 1-3 14 1 3-6 10-8 10-3 1-2 5-1 2 3 1-9 10-11 15-3 5h-2v-7l6-10 3-4v-3l1-3 1-13 5-12v-3l-3-1-1 3-3 1-1 2h-3l-1 3-6 4-2-1 3-3 5-4 4-4 2-3 2-1v-4l14-11z" fill="#4ABDBB"/>
<path transform="translate(1316,308)" d="m0 0 9 1 10 3-1 3 10 5v2l2 1v2l3 1-1 3-2 1 1 7-2 2-1 6-4 3-7 1v2l-12-1-10-3 2-1 2-11 1-11-3-10-1-3 1-2z" fill="#2F8A87"/>
<path transform="translate(575,714)" d="m0 0 1 2 4-1 1 1h6l5 5v2l4 2 3 6v3l4 1 7 10v3h2l3 6 1 1 2-3 11 18 7 8-1 3-5-3-2-5h-2l-5-7-5-5-3-4-8-4v-2l-5 3-9-3 1 4-1 2 2 11h-3l-2-6-2-1v-2h-2l-5-11-3-10 3-1v6h3v-2l-2-1-1-5-2-1v-7l-1-7-2-5z" fill="#4ABDBB"/>
<path transform="translate(942,192)" d="m0 0 3 1 1 2 2-1 9 3v2l6-1 4 1 6-1-2 2-18 8-23 12-18 11h-4l2-4 6-4v-6l1-2h-10l-5-2-5 3-4 1v-3l18-10 17-7z" fill="#3A9A97"/>
<path transform="translate(1417,1006)" d="m0 0h1v5h-2v7l7-2 1 2-1 2h2l-1 4-6 8-12 14-10 11h-2l-2 4-10 10-13 10-15 14-15 11-2-1 11-10 5-5 10-11 5-4 9-12 8-10 11-14 10-16 8-13z" fill="#2B807D"/>
<path transform="translate(745,1082)" d="m0 0 6 2 23 11 19 8 34 11 15 4 12 2 1 3h-5v2h-4l1 3-1 3-4 1-2-1v2l-9-2-13-6-21-10-19-10-18-11-11-8z" fill="#2A7F7C"/>
<path transform="translate(855,1121)" d="m0 0 10 1 37 6v3l-5 2-3 6-1 3h-2v3l-8 1-12-2-26-8-6-2 1-3 5-1 1-5h4v-2h5z" fill="#3A9A97"/>
<path transform="translate(1039,749)" d="m0 0 1 4 4-1h14l2 4 2 11 1 2 8 1 34 1-1 2h-40l-4-2-2-12h-17v22l-3-2-1-19-51-1-5-1-1-6h59z" fill="#3D9E9C"/>
<path transform="translate(578,502)" d="m0 0h1v12l-4 26-4 47h-2l-1 8-7-1-1-4 1-18 4-23 11-41z" fill="#297D7B"/>
<path transform="translate(971,1076)" d="m0 0 13 1-2 4-10 4-25 5-27 4-10 1h-28l-9-2-1-2 43-1 17-4 16-4z" fill="#145A57"/>
<path transform="translate(602,557)" d="m0 0 2 1 1 24 2 11 3 25 5 25 12 38 2 8v6l-3-4-6-15-10-30-5-21-1-18-3-10v-36z" fill="#18615D"/>
<path transform="translate(1136,615)" d="m0 0h2l-1 5h2l1 4v34l-4 1 3 1 1 6-1 11-3 8-2 1-2-1-2-57 1-5z" fill="#47AAA8"/>
<path transform="translate(640,564)" d="m0 0h1l2 23 4 22 5 15 10 20 16 24 10 14v2l-4-2-13-11-7-10-14-28-6-19-3-19-1-12z" fill="#155B57"/>
<path transform="translate(571,575)" d="m0 0h1l1 32 2 20v11l-5-2-3-6-2-8-3-2-2-9-1-1v-20h2l2 4h4l2-7h2z" fill="#308C89"/>
<path transform="translate(1364,943)" d="m0 0 1 2-4 16-6 15-7 14-8 13-10 14-2 1 2-5 4-7 8-19 6-17 2-3 3-20h2l1-2 7-1z" fill="#3FA09D"/>
<path transform="translate(975,182)" d="m0 0h2v3l5-1v2l-2 1 3 1 3 4 4 1-14 5-11 2-5-1h-3v-2l-9-2h-3l-1-4z" fill="#308C89"/>
<path transform="translate(1417,1006)" d="m0 0h1v5h-2v7l7-2 1 2-1 2h2l-1 4-6 8-9 11-2-4 2-2 1-2h-5v3l-6-1v3l-4 2 2-5 9-14 8-13z" fill="#328E8B"/>
<path transform="translate(1417,479)" d="m0 0 5 3 13 11 12 11 8 10v2h2l12 16-1 2-11-12-17-16-17-13-10-6 2-7z" fill="#1E6B68"/>
<path transform="translate(1018,214)" d="m0 0 2 2-28 12-17 9-12 8-13 9h-2v-3h-7l4-4 13-8 16-8 27-11z" fill="#47ADAB"/>
<path transform="translate(1397,954)" d="m0 0 6 2 2-1-3 10-6 15-12 22-16 24-7 11-2 1 2-5 12-21 10-19 5-11 8-24z" fill="#4BB0AE"/>
<path transform="translate(1106,708)" d="m0 0h3l1 65-2 7-4 4h-62l-1-3h61l3-1z" fill="#57D3D2"/>
<path transform="translate(1437,443)" d="m0 0 8 6 6 5v2l4 2 11 12 11 14 9 10 5 7-1 2-12-13-25-25-14-11-9-7h3l6 2z" fill="#4CB0AE"/>
<path transform="translate(831,1116)" d="m0 0 8 1 15 3 1 3h-5v2h-4l1 3-1 3-4 1-2-1v2l-9-2-13-6 3-1h5l3-1z" fill="#318D8A"/>
<path transform="translate(1106,631)" d="m0 0h2l3 11v8l1 1v26h-7l-1-1v-33z" fill="#48ADAB"/>
<path transform="translate(1035,675)" d="m0 0 7 3 3 8 2 1-1 6-3 9-5 4-4-1v-28z" fill="#4BAFAD"/>
<path transform="translate(1036,742)" d="m0 0 4 1 1 5h17l1 5h-19-3-2v-2h-50l2-4 49 1v-4z" fill="#4DBEBC"/>
<path transform="translate(578,502)" d="m0 0h1v12l-4 26-1 9h-2v3l-5 3-2-1 1-9 10-37z" fill="#1E6C69"/>
<path transform="translate(1077,610)" d="m0 0 3 3v49l-2 1-1-4-2-1-1 18h-1v-23l1-1 1-17v-15l-1-7z" fill="#4BBDBB"/>
<path transform="translate(1158,964)" d="m0 0h1l3 9 2 7v21l-3 24-4 13-3 3-2 7h-2l2-9 3-4 2-10 3-30v-9l-2-10z" fill="#3DA09E"/>
<path transform="translate(1136,691)" d="m0 0 2 1-1 75-2 4-2 1h-20v-1l15-1 5-2 1-19v-56z" fill="#6DCCCA"/>
<path transform="translate(813,1040)" d="m0 0 10 1 8 2 41 3-4 1 2 4 3 2-21-1-18-5-16-4-5-2z" fill="#206F6C"/>
<path transform="translate(1039,245)" d="m0 0 3 1-24 12-17 10-9 6v-2h-2v-2h-3l1-3 31-15z" fill="#3B9C99"/>
<path transform="translate(985,269)" d="m0 0 5 1v2h2l-2 4-8 7-8 8-7-6-1-2 16-12z" fill="#1E6A67"/>
<path transform="translate(943,250)" d="m0 0 5 1-1 5-11 9-7 6h-2l-3-7-2-1 14-10z" fill="#1E6B68"/>
<path transform="translate(806,870)" d="m0 0 4 1-3 2-23 7-10 3-12 1h-22v-1l29-4 29-8z" fill="#43A8A5"/>
<path transform="translate(1029,669)" d="m0 0h2l-1 5h-4l2 12v12l-1 5h-1v7l-4 1-5-5v-3h2l2 4 1-3v-30l6-4z" fill="#409F9C"/>
<path transform="translate(1039,749)" d="m0 0 2 4-1 3h-2l-1 2v-3l-2 1h-6l-2-1v2h-4-9l-1-1-6-1h-27v-3h59z" fill="#297D7A"/>
<path transform="translate(998,623)" d="m0 0h2l1 15h31l29 1-2 2h-62z" fill="#9EF3F2"/>
<path transform="translate(1132,656)" d="m0 0h8v2l-4 1 3 1 1 6-1 11-3 8-2 1-2-1-1-25z" fill="#3B9996"/>
<path transform="translate(1388,982)" d="m0 0h2v2l3 1-9 17-16 24-7 11-2 1 2-5 12-21 10-19z" fill="#54C5C4"/>
<path transform="translate(915,1090)" d="m0 0h7v1l7 1v1l-19 2h-28l-9-2-1-2z" fill="#206F6C"/>
<path transform="translate(1364,943)" d="m0 0 1 2-4 16-4 4h-3l-2-5 1-13h2l1-2 7-1z" fill="#2D827F"/>
<path transform="translate(1422,430)" d="m0 0 5 3 10 9 3 8-7-2-10-6-5-4v-3h3z" fill="#2A7F7C"/>
<path transform="translate(1104,678)" d="m0 0 7 1 1 2v10l-3 11-4 2-1-2z" fill="#45A7A4"/>
<path transform="translate(960,238)" d="m0 0 5 1v3h-2l-1 4-12 8h-2v-3h-7l4-4 13-8z" fill="#3D9E9B"/>
<path transform="translate(813,1078)" d="m0 0 9 1 18 3 18 4 10 3v2l-22-3-10-2-16-5-7-2z" fill="#399794"/>
<path transform="translate(1400,938)" d="m0 0 5 1 2-1v2l3-1-2 10-3 6-2 2-3-1-2-2 1-10z" fill="#2C817F"/>
<path transform="translate(1136,615)" d="m0 0h2l-1 5h2v14l-7 4-2-10 1-5z" fill="#43A3A1"/>
<path transform="translate(1403,924)" d="m0 0 5 3h6l-3 12-4 1h-2l-4-1 1-8z" fill="#1F6D6A"/>
<path transform="translate(1036,724)" d="m0 0h5l3 4v9l-1 1h-8l-1-1v-11z" fill="#399996"/>
<path transform="translate(1367,666)" d="m0 0 7 3 4 3 7 2 11 5 3 3-5-1v-2l-17-2v-2l-12-1-4-2v-1h7z" fill="#34918F"/>
<path transform="translate(1443,501)" d="m0 0 7 6 4 6 1 3h2l12 16-1 2-11-12-15-14 3-2h-2z" fill="#3B9B99"/>
<path transform="translate(1179,339)" d="m0 0 2 1-8 9-1 4-6 7h-2l-2 4-5 6-5 5h-2l1-5 5-5 9-10h2l1-5 6-5z" fill="#3B9D9A"/>
<path transform="translate(1437,443)" d="m0 0 7 5 3 5v2h2l2 4 3 1-2 2 1 2-4-2-10-8-9-7h3l6 2z" fill="#3D9F9D"/>
<path transform="translate(1059,756)" d="m0 0h1l2 11 1 2 8 1 34 1-1 2h-40l-4-2-2-12z" fill="#399694"/>
<path transform="translate(1364,931)" d="m0 0 2 1v8l-3 5-7 1-2 1v-12l1 3h3l1-3 4-1z" fill="#1D6966"/>
<path transform="translate(977,608)" d="m0 0h1v6l-1 4-1 9v21l-1 5-2-2v-34l1-7h2z" fill="#41A4A2"/>
<path transform="translate(1041,781)" d="m0 0 51 1v2h-50z" fill="#48B7B5"/>
<path transform="translate(1077,610)" d="m0 0 3 3v10l-1 9v14l-2-3 1-6h-2v5h-1v-22l-1-7z" fill="#4FC0BE"/>
<path transform="translate(1039,245)" d="m0 0 3 1-24 12-11 6 2-5-2-1 12-6z" fill="#49B2B0"/>
<path transform="translate(1013,665)" d="m0 0 7 1 2 3-9 9-4 1-1-4-2-1zm1 3 1 2 1-2z" fill="#48ACAA"/>
<path transform="translate(602,557)" d="m0 0 2 1 1 30h-2l-1 9h-1v-36z" fill="#2E8481"/>
<path transform="translate(997,609)" d="m0 0h55v2h-24l-29 1-3-2z" fill="#318C89"/>
<path transform="translate(1050,727)" d="m0 0 2 1v11h-2l1 4h2v2h-9l-1-2 2-5h2v-8z" fill="#3F9E9C"/>
<path transform="translate(943,250)" d="m0 0 5 1-1 5-8 6-1-3h-2v-2l-4-1 7-5z" fill="#2D817E"/>
<path transform="translate(602,587)" d="m0 0 4 2 2 15v5h-1l-1 11h-1l-1-13-2-7z" fill="#277976"/>
<path transform="translate(1136,691)" d="m0 0 2 1-1 45-2 1-1-45z" fill="#49B0AE"/>
<path transform="translate(1413,424)" d="m0 0 9 5v6l-2 1-2-1v2l-5-2-5-4h3l-1-3h3z" fill="#1F6C69"/>
<path transform="translate(1071,617)" d="m0 0h1v23h-1l-1 5-2-2-1-5v-13l2-4 1 1z" fill="#4FC1BF"/>
<path transform="translate(1397,954)" d="m0 0 6 2 2-1-3 10-2 5-3 1-1-5-1-4z" fill="#3FA09D"/>
<path transform="translate(769,1094)" d="m0 0 5 1 14 6 1 3h2v2l-7-1-12-6z" fill="#1F6C69"/>
<path transform="translate(813,1040)" d="m0 0 10 1 8 2 15 1-4 2 5 2 1 2-20-4-15-5z" fill="#348C89"/>
<path transform="translate(1341,990)" d="m0 0 4 1 1 2-10 16-7 9v-3l5-9z" fill="#57BFBD"/>
<path transform="translate(1155,896)" d="m0 0h1l1 31-2 1v-3h-2v-24z" fill="#5AD3D2"/>
<path transform="translate(1018,214)" d="m0 0 2 2-28 12-4-2 3-2 24-9z" fill="#51BEBC"/>
<path transform="translate(1034,665)" d="m0 0h7v2l6 3-1 4-2-1-1 2-12-6-1-2z" fill="#4FB6B4"/>
<path transform="translate(1378 1e3)" d="m0 0 3 3-13 20-7 11-2 1 2-5 12-21z" fill="#53BFBE"/>
<path transform="translate(1471,478)" d="m0 0 12 12 8 11-1 2-12-13-10-10z" fill="#4EB4B2"/>
<path transform="translate(1106,631)" d="m0 0h2l3 11v6h-7l1-11z" fill="#399A97"/>
<path transform="translate(779,876)" d="m0 0 4 1h-2v2l-7 2-11 1-8 2h-15v-1l29-4z" fill="#46AFAD"/>
<path transform="translate(640,564)" d="m0 0h1l2 23 3 20h-2l-1 2-3-26z" fill="#4EB3B1"/>
<path transform="translate(789,487)" d="m0 0 5 5v2l4 2 6 5 3 4-1 3-5-5-3-2-1 3-1-4-3-3-4-8z" fill="#45AFAD"/>
<path transform="translate(985,269)" d="m0 0 5 1v2h2l-2 4-6 4v-3l-3-1-3-2z" fill="#2A7F7C"/>
<path transform="translate(1433,492)" d="m0 0 8 6 3 5-1 3h2l-1 2-7-4-5-5h4l-1-3-2-1z" fill="#369390"/>
<path transform="translate(1042,748)" d="m0 0h16l1 5h-17l-1-4z" fill="#4BB6B4"/>
<path transform="translate(1378,1064)" d="m0 0h3v5h-3v3l-4 1-1 3-4 3h-2l1-4 5-7h3z" fill="#1F6D6A"/>
<path transform="translate(872,1091)" d="m0 0h32v1l-18 1 11 1v1h-15l-9-2z" fill="#379290"/>
<path transform="translate(1104,680)" d="m0 0 1 3h3v2h-3v2h2l-2 5h2v6l3-1-2 6-3 1-1-2z" fill="#4CC0BE"/>
<path transform="translate(578,502)" d="m0 0h1v12l-2 11-2-3h-2l1-7z" fill="#206E6B"/>
<path transform="translate(1106,708)" d="m0 0h3v12l-1 3-1 22h-1z" fill="#4DC0BE"/>
<path transform="translate(1356,1087)" d="m0 0 1 2 2 1-10 9-10 7-2-1 11-10 5-5z" fill="#4AB0AD"/>
<path transform="translate(1037,759)" d="m0 0h4v22l-3-2z" fill="#59CBC9"/>
<path transform="translate(1426,486)" d="m0 0 7 5v4l3 1v3h-5l-5-5 1-5z" fill="#2A7F7C"/>
<path transform="translate(823,860)" d="m0 0v3l-8 5-6 3h-7l3-3 15-6z" fill="#49BAB8"/>
<path transform="translate(745,1082)" d="m0 0 6 2 13 6 1 6-5-2-11-8z" fill="#379693"/>
<path transform="translate(980,755)" d="m0 0h8l1 1 26 2v1h-29l-5-1z" fill="#51BAB8"/>
<path transform="translate(1044,752)" d="m0 0h14l1 4h-16l-1-3z" fill="#277B78"/>
<path transform="translate(1057,726)" d="m0 0 5 1v11h-5z" fill="#4EB4B2"/>
<path transform="translate(1368,670)" d="m0 0 10 4 7 2 3 2-11-1v-2l-12-1-4-2v-1z" fill="#41A5A3"/>
<path transform="translate(841,547)" d="m0 0 4 2 5 5v3h2l1 4-4-1-8-9z" fill="#4EB3B1"/>
<path transform="translate(915,1090)" d="m0 0h7v1l7 1v1l-9 1h-16l2-2z" fill="#1C6764"/>
<path transform="translate(1138,661)" d="m0 0 2 1-1 15-3 4v-4-4l-2-1 3-1-1-5v-4z" fill="#308A87"/>
<path transform="translate(970,233)" d="m0 0h2l-1 3-1 1 4 1-11 6v-2h2v-3l-4-1 4-3z" fill="#50B3B1"/>
<path transform="translate(948,245)" d="m0 0 6 1-2 1 1 5-5 2v-3h-7l4-4z" fill="#369390"/>
<path transform="translate(1434,440)" d="m0 0 3 2 3 8-7-2-8-5 3-1 6 2-1-3z" fill="#308C89"/>
<path transform="translate(813,1078)" d="m0 0 9 1 14 2v3l3 1-3 1-16-5-7-2z" fill="#50B0AD"/>
<path transform="translate(1131,628)" d="m0 0 8 1v5l-7 4z" fill="#2E8683"/>
<path transform="translate(1106,768)" d="m0 0h1l1 7 1 4-5 5h-12v-2l13-2z" fill="#8CEAE9"/>
<path transform="translate(1078,622)" d="m0 0h1v24l-2-3 1-6h-2v5h-1l1-16h2z" fill="#5CD1D0"/>
<path transform="translate(993,266)" d="m0 0 5 1-1 4-5 3v-2h-2v-2h-3l1-3z" fill="#328F8C"/>
<path transform="translate(886,827)" d="m0 0 4 1 1 6-4 2h-5l2-3 1-5z" fill="#49AEAC"/>
<path transform="translate(1043,728)" d="m0 0h1v9l-1 1h-8l-1-2h2l1-3 4 2-1-4h2z" fill="#4AB0AE"/>
<path transform="translate(602,587)" d="m0 0 4 2v12l-4-1z" fill="#175F5C"/>
<path transform="translate(1039,245)" d="m0 0 3 1-8 4-17 8v-2l7-4 1-2z" fill="#60CFCE"/>
<path transform="translate(1158,1022)" d="m0 0 1 4-2 12-3 3-2 7h-2l2-9 3-4z" fill="#43AAA7"/>
<path transform="translate(1104,678)" d="m0 0 7 1 1 2v7l-2-2-5 1v-2h3v-2h-3z" fill="#4CB2B0"/>
<path transform="translate(776,879)" d="m0 0h8v1l-10 3-19 1v-1l8-2 11-1z" fill="#2F8885"/>
<path transform="translate(1007,754)" d="m0 0h22l-2 1v2h-4-9l-1-1-6-1z" fill="#2F8A87"/>
<path transform="translate(998,623)" d="m0 0h2l1 18h-4z" fill="#5BC2C0"/>
<path transform="translate(1455,516)" d="m0 0h2l12 16-1 2-11-12-3-3z" fill="#73D8D6"/>
<path transform="translate(1460,470)" d="m0 0h4v2l4 1 3 3v3l-5-1-6-6z" fill="#40A29F"/>
<path transform="translate(1427,692)" d="m0 0 8 8 1-5h1v9l-1-2-6-2-7-6z" fill="#2F8885"/>
<path transform="translate(906,425)" d="m0 0h2v5l-6 3-1 2h-2v2l-2-1 2-5z" fill="#3B9D9A"/>
<path transform="translate(993,629)" d="m0 0h1l1 15-2 5-3-2v-6l2-3z" fill="#56C4C2"/>
<path transform="translate(602,557)" d="m0 0 2 1v11h-2v14h-1v-22z" fill="#46A5A3"/>
<path transform="translate(575,521)" d="m0 0h1v10l-1 2h-2l-2-3 1-8z" fill="#19625E"/>
<path transform="translate(1388,982)" d="m0 0h2v2l3 1-4 8-3-1-1-4z" fill="#51BBB9"/>
<path transform="translate(1136,691)" d="m0 0 2 1-1 18-2 1-1-18z" fill="#4EB2B0"/>
<path transform="translate(1006,680)" d="m0 0 4 4v3h-2v4l-3 1-1-7z" fill="#4BB0AE"/>
<path transform="translate(1363,1079)" d="m0 0h3l-2 6-4 4h-3l1-4z" fill="#257774"/>
<path transform="translate(797,873)" d="m0 0h7l-3 2-13 4h-4v-2z" fill="#308A87"/>
<path transform="translate(1e3 702)" d="m0 0 4 2 6 8-1 3-1-3-3 1-5-8z" fill="#40A19E"/>
<path transform="translate(813,1040)" d="m0 0 10 1 8 2v3l-9-2-9-3z" fill="#54B9B7"/>
<path transform="translate(1490,857)" d="m0 0h1v14l-1 5h-2v-12z" fill="#4DC0BE"/>
<path transform="translate(1111,651)" d="m0 0h1v26h-1l-1-6 1-4-3 1 2-4v-5-4z" fill="#4CBDBB"/>
<path transform="translate(1064,756)" d="m0 0h15l-1 2-3 1h-10z" fill="#4DB2B0"/>
<path transform="translate(1064,752)" d="m0 0h12l1 2-9 2h-4z" fill="#287C79"/>
<path transform="translate(1010,696)" d="m0 0h1l1 14-5-5v-4z" fill="#4BAEAC"/>
<path transform="translate(1106,631)" d="m0 0h2l2 10h-2l1 3h-3l-1-7z" fill="#54BEBC"/>
<path transform="translate(997,609)" d="m0 0 31 1v1l-29 1-3-2z" fill="#399996"/>
<path transform="translate(1149,375)" d="m0 0 1 4-1 5-2 3h-2v-6l-3-1 5-2z" fill="#41A7A5"/>
<path transform="translate(1376,1072)" d="m0 0h2l-1 3-9 7-4 3 1-7 2-1v2l6-4z" fill="#308885"/>
<path transform="translate(1450,509)" d="m0 0 5 5-1 4-8-6-1-2z" fill="#47ADAB"/>
<path transform="translate(1370,1018)" d="m0 0 2 2-11 17-2 1 2-5z" fill="#64CCCA"/>
<path transform="translate(1042,755)" d="m0 0h14l3 1-1 3-16-1z" fill="#399A97"/>
<path transform="translate(1131,644)" d="m0 0h1l1 10 3-1 2 1 1-8h1v10h-8l-1 2z" fill="#49B6B4"/>
<path transform="translate(1078,750)" d="m0 0h2v5l-1 1h-11v-1l8-2-6-1v-1z" fill="#399794"/>
<path transform="translate(1050,727)" d="m0 0 2 1v8l-2 2-3-7 1-3z" fill="#43A5A3"/>
<path transform="translate(904,505)" d="m0 0 2 2-1 4-1 2-6 2 2-6 3-1z" fill="#399A97"/>
<path transform="translate(1199,431)" d="m0 0 6 1 9 5-4 2-9-5-2-1z" fill="#49B0AE"/>
<path transform="translate(985,631)" d="m0 0 2 3 1 15-2-1-1-3z" fill="#3E9E9C"/>
<path transform="translate(836,1082)" d="m0 0 7 1 4 2-1 2h-7l-3-3z" fill="#39918E"/>
<path transform="translate(1107,758)" d="m0 0h1l2 15-2 3-1-1-1-10z" fill="#51C0BE"/>
<path transform="translate(1041,781)" d="m0 0h11v1l5 1v1h-15z" fill="#62CFCD"/>
<path transform="translate(1106,745)" d="m0 0h1l1 9h1v10l-3 1z" fill="#9CF4F3"/>
<path transform="translate(642,593)" d="m0 0 2 1 2 13h-2l-1 2-1-7z" fill="#399593"/>
<path transform="translate(1301,563)" d="m0 0 4 2 2 7 1 2-4-2-4-5z" fill="#33918E"/>
<path transform="translate(1011,694)" d="m0 0 2 4 2 14-3-1-1-7z" fill="#2F8986"/>
<path transform="translate(644,607)" d="m0 0h2l3 10h-4l-1-3z" fill="#23726F"/>
<path transform="translate(1018,214)" d="m0 0 2 2-12 5-3-1 4-3z" fill="#43A6A3"/>
<path transform="translate(1104,696)" d="m0 0 6 1-2 6-3 1-1-2z" fill="#52C3C1"/>
<path transform="translate(1013,669)" d="m0 0 1 4-3 1v3l2 1-4 1-1-5z" fill="#52B6B4"/>
<path transform="translate(900,210)" d="m0 0 2 1-2 4-7 2v-3z" fill="#3FA19E"/>
<path transform="translate(745,1082)" d="m0 0 6 2 6 3-1 4-11-8z" fill="#52BDBB"/>
<path transform="translate(1356,1087)" d="m0 0 1 2 2 1-5 5-4-1z" fill="#3D9C99"/>
<path transform="translate(1456,884)" d="m0 0 2 1v5l-2 3v3l-2-1v-8z" fill="#49AFAD"/>
<path transform="translate(1017,660)" d="m0 0 5 1 3 1-1 4-4-1-3-2z" fill="#3C9F9C"/>
<path transform="translate(977,608)" d="m0 0h1v6l-1 4-3 1v-9h2z" fill="#389895"/>
<path transform="translate(1049,676)" d="m0 0h1l2 8-3 6-1-3v-9z" fill="#55BEBC"/>
<path transform="translate(1029,669)" d="m0 0h2l-1 5h-4l1 7-2-3-1-5z" fill="#51B6B4"/>
<path transform="translate(1367,666)" d="m0 0 7 3 3 4-6-1-4-4z" fill="#308C89"/>
<path transform="translate(1481,489)" d="m0 0 5 5 5 7-1 2-8-9z" fill="#5BCBCA"/>
<path transform="translate(824,446)" d="m0 0 4 2 5 6-2 1-4-3v-2h-2z" fill="#4ABDBB"/>
<path transform="translate(1244,356)" d="m0 0 2 1v2l-8 4h-2l2-4h3v-2z" fill="#45A6A3"/>
<path transform="translate(1011,256)" d="m0 0 3 1-1 4-6 3 2-5-2-1z" fill="#52B6B4"/>
<path transform="translate(1353,960)" d="m0 0h8l-2 4-5 1z" fill="#318D8A"/>
<path transform="translate(1008,687)" d="m0 0h2v7l-2 5h-2z" fill="#3C9E9B"/>
<path transform="translate(1031,662)" d="m0 0h2l-1 5-3 2h-4l2-4 3-2z" fill="#389996"/>
<path transform="translate(1013,665)" d="m0 0 3 1-2 1-2 4-4 4-2-1z" fill="#34918E"/>
<path transform="translate(1059,756)" d="m0 0h1l2 11 1 3-3 1-2-12z" fill="#4FBAB8"/>
<path transform="translate(1347,621)" d="m0 0 3 1 1 5-3 2-2-5z" fill="#2B817E"/>
<path transform="translate(1057,743)" d="m0 0h4v3l-4-1z" fill="#6FD6D4"/>
<path transform="translate(1045,242)" d="m0 0h2v2l-5 1z" fill="#65CBC9"/>
<path transform="translate(806,1076)" d="m0 0 5 1-2 1z" fill="#8EE8E6"/>
<path transform="translate(1260,601)" d="m0 0 3 1v2h-2z" fill="#FEFEFE"/>
<path transform="translate(580,494)" d="m0 0 2 1-2 2z" fill="#73D8D7"/>
<path transform="translate(579,499)" d="m0 0" fill="#49B1AF"/>
<path transform="translate(1334,1107)" d="m0 0 2 1z" fill="#9CF4F3"/>
<path transform="translate(1323,1024)" d="m0 0" fill="#9CF4F3"/>
<path transform="translate(1327,1018)" d="m0 0" fill="#9CF4F3"/>
<path transform="translate(1550,545)" d="m0 0" fill="#4ABDBB"/>
<path transform="translate(1548,539)" d="m0 0" fill="#287B78"/>
<path transform="translate(1493,506)" d="m0 0" fill="#79E3E2"/>
<path transform="translate(1491,503)" d="m0 0" fill="#73D8D7"/>
<path transform="translate(1333,1108)" d="m0 0" fill="#9CF4F3"/>
<path transform="translate(1336,1106)" d="m0 0" fill="#49ACAA"/>
<path transform="translate(744,1081)" d="m0 0" fill="#57D3D2"/>
<path transform="translate(742,1080)" d="m0 0" fill="#9CF4F3"/>
<path transform="translate(1321,1027)" d="m0 0" fill="#9CF4F3"/>
<path transform="translate(1322,1026)" d="m0 0" fill="#9CF4F3"/>
<path transform="translate(1324,1023)" d="m0 0" fill="#FEFEFE"/>
<path transform="translate(1325,1021)" d="m0 0" fill="#9CF4F3"/>
<path transform="translate(1326,1020)" d="m0 0" fill="#9CF4F3"/>
<path transform="translate(1469,534)" d="m0 0" fill="#9CF4F3"/>
<path transform="translate(1494,508)" d="m0 0" fill="#57D3D2"/>
<path transform="translate(1492,505)" d="m0 0" fill="#9CF4F3"/>
</svg>
